<svg width="106" height="106" viewBox="0 0 106 106" fill="none" xmlns="http://www.w3.org/2000/svg">
<g clip-path="url(#clip0_152_700)">
<rect x="0.253906" width="105.228" height="105.228" rx="14" fill="#D9D9D9"/>
<path d="M92.7502 0H13.2498C9.73699 0.00354913 6.36889 1.40103 3.8853 3.8853C1.4008 6.3689 0.00340716 9.73699 0 13.2498V92.7502C0.00354913 96.263 1.40102 99.6311 3.8853 102.115C6.36889 104.599 9.73699 105.997 13.2498 106H92.7502C96.263 105.996 99.6311 104.599 102.115 102.115C104.599 99.6311 105.997 96.263 106 92.7502V13.2498C105.996 9.73699 104.599 6.3689 102.115 3.8853C99.6311 1.4008 96.263 0.00340716 92.7502 0ZM100.7 92.7498C100.698 94.8579 99.86 96.8783 98.3693 98.3689C96.8786 99.8594 94.8584 100.697 92.7502 100.7H13.2498C11.1416 100.697 9.1212 99.8596 7.63068 98.3689C6.14016 96.8782 5.30245 94.8579 5.29973 92.7498V13.2493C5.30239 11.1411 6.13998 9.12075 7.63068 7.63023C9.12138 6.13971 11.1416 5.302 13.2498 5.29927H92.7502C94.8584 5.30194 96.8788 6.13953 98.3693 7.63023C99.8598 9.12093 100.698 11.1412 100.7 13.2493V92.7498Z" fill="#180912"/>
<path d="M84.8004 53C84.8004 58.8541 80.0542 63.6003 74.2 63.6003C68.3459 63.6003 63.6006 58.8541 63.6006 53C63.6006 47.1458 68.3459 42.3996 74.2 42.3996C80.0542 42.3996 84.8004 47.1458 84.8004 53Z" fill="#180912"/>
<path d="M84.8004 26.4991C84.8004 32.3533 80.0542 37.0994 74.2 37.0994C68.3459 37.0994 63.6006 32.3533 63.6006 26.4991C63.6006 20.6449 68.3459 15.8996 74.2 15.8996C80.0542 15.8996 84.8004 20.6449 84.8004 26.4991Z" fill="#180912"/>
<path d="M84.8004 79.5009C84.8004 85.3551 80.0542 90.1004 74.2 90.1004C68.3459 90.1004 63.6006 85.3551 63.6006 79.5009C63.6006 73.6468 68.3459 68.9006 74.2 68.9006C80.0542 68.9006 84.8004 73.6468 84.8004 79.5009Z" fill="#180912"/>
<path d="M42.399 53C42.399 58.8541 37.6538 63.6003 31.7996 63.6003C25.9454 63.6003 21.1992 58.8541 21.1992 53C21.1992 47.1458 25.9454 42.3996 31.7996 42.3996C37.6538 42.3996 42.399 47.1458 42.399 53Z" fill="#180912"/>
<path d="M42.399 26.4991C42.399 32.3533 37.6538 37.0994 31.7996 37.0994C25.9454 37.0994 21.1992 32.3533 21.1992 26.4991C21.1992 20.6449 25.9454 15.8996 31.7996 15.8996C37.6538 15.8996 42.399 20.6449 42.399 26.4991Z" fill="#180912"/>
<path d="M42.399 79.5009C42.399 85.3551 37.6538 90.1004 31.7996 90.1004C25.9454 90.1004 21.1992 85.3551 21.1992 79.5009C21.1992 73.6468 25.9454 68.9006 31.7996 68.9006C37.6538 68.9006 42.399 73.6468 42.399 79.5009Z" fill="#180912"/>
</g>
<defs>
<clipPath id="clip0_152_700">
<rect width="106" height="106" fill="white"/>
</clipPath>
</defs>
</svg>
