<svg width="37" height="32" viewBox="0 0 37 32" fill="none" xmlns="http://www.w3.org/2000/svg">
<path d="M10.9504 1.50032H11.0086C13.3967 1.52593 15.5605 3.09436 17.3986 5.00093L18.4794 6.1221L19.5593 4.99996C21.4116 3.07513 23.6257 1.50032 26.0496 1.50032C28.6997 1.50032 31.0323 2.3665 32.718 3.9617C34.3893 5.54362 35.5 7.93699 35.5 11.1404C35.5 14.2037 33.3578 17.2271 29.8824 20.5931C27.6202 22.7841 24.9775 24.9333 22.2416 27.1583C20.9975 28.17 19.7342 29.1975 18.4786 30.2516C17.2198 29.1952 15.9534 28.1673 14.7071 27.1557C11.9706 24.9345 9.33058 22.7915 7.07815 20.5964L7.0781 20.5963C3.61971 17.2262 1.5 14.1715 1.5 11.1404C1.5 7.96088 2.57982 5.54134 4.24236 3.95877C5.91894 2.36284 8.28728 1.50032 10.9504 1.50032Z" fill="white" stroke="#180912" stroke-width="3"/>
</svg>
